<?xml version="1.0" encoding="UTF-8" standalone="no"?>
<svg
   viewBox="0 0 600 600"
   version="1.1"
   id="svg1"
   sodipodi:docname="t1.svg"
   inkscape:version="1.4 (86a8ad7, 2024-10-11)"
   width="600"
   height="600"
   xmlns:inkscape="http://www.inkscape.org/namespaces/inkscape"
   xmlns:sodipodi="http://sodipodi.sourceforge.net/DTD/sodipodi-0.dtd"
   xmlns="http://www.w3.org/2000/svg"
   xmlns:svg="http://www.w3.org/2000/svg"
   xmlns:rdf="http://www.w3.org/1999/02/22-rdf-syntax-ns#"
   xmlns:cc="http://creativecommons.org/ns#"
   xmlns:dc="http://purl.org/dc/elements/1.1/">
  <defs
     id="defs1" />
  <sodipodi:namedview
     id="namedview1"
     pagecolor="#ffffff"
     bordercolor="#000000"
     borderopacity="0.25"
     inkscape:showpageshadow="2"
     inkscape:pageopacity="0.0"
     inkscape:pagecheckerboard="0"
     inkscape:deskcolor="#d1d1d1"
     inkscape:zoom="2.2851563"
     inkscape:cx="315.51452"
     inkscape:cy="479.39828"
     inkscape:window-width="1440"
     inkscape:window-height="829"
     inkscape:window-x="1432"
     inkscape:window-y="-8"
     inkscape:window-maximized="1"
     inkscape:current-layer="svg1" />
  <g
     id="imagebot_2"
     label="Layer 1"
     transform="matrix(0.37036482,-0.02686496,0.02686496,0.37036482,239.44313,463.40666)">
    <g
       id="imagebot_7"
       transform="matrix(1.2311,0,0,1.2311,66.255,-1090.7)"
       label="Layer 1">
      <path
         id="imagebot_14"
         stroke-linejoin="round"
         d="m 89.471,1065.9 c 3.727,6.1 -0.484,10 -6.16,12.9 -8.03,4.1 -27.898,2.1 -34.7,-2 -6.243,-3.8 -9.013,-9.3 -6.041,-14.2"
         stroke="#000000"
         stroke-linecap="round"
         stroke-width="4.0614"
         fill="#ffffff" />
      <path
         id="imagebot_13"
         stroke-linejoin="round"
         d="m -3.2128,1024.9 c -5.6068,10.6 16.858,15.2 23.302,16 7.743,1 19.2,22.2 32.629,26.2 9.102,2.7 29.326,3.8 36.494,-1.5 12.278,-9 18.478,-20.7 21.288,-35.1 0.99,-5.1 1.7,-10.9 0.95,-15.7 -3.18,-20.02 -14.946,-20.01 -19.509,-20.72 -2.727,-8.72 -12.699,-15.04 -26.068,-12.39 -0.103,-10.74 0.226,-17.36 1.112,-27.53 1.484,-17.02 -28.071,-12.05 -27.471,15.26 0.302,13.71 6.251,36.78 -1.611,54.88 -15.641,-13.2 -30.952,-18.7 -41.116,0.6 z"
         stroke="#000000"
         stroke-linecap="round"
         stroke-width="4.0614"
         fill="#ffffff" />
      <path
         id="imagebot_12"
         stroke-width="5.781"
         d="m 63.838,981.04 c 0.03,10.26 1.214,18.23 7.226,26.06 -2.51,-6.5 -3.37,-19.62 -3.177,-27.89 z"
         fill="#000000" />
      <path
         id="imagebot_11"
         stroke-width="5.781"
         d="m 93.471,992.23 -3.809,1.49 c 1.929,5.57 4.051,11.88 7.114,15.18 -1.081,-2.6 -2.077,-11.98 -3.305,-16.67 z"
         fill="#000000" />
      <path
         id="imagebot_10"
         stroke-linejoin="round"
         d="m 83.386,1059 c 4.939,-9.3 5.143,-12 6.826,-16.8"
         stroke="#000000"
         stroke-linecap="round"
         stroke-width="4.0614"
         fill="none" />
      <path
         id="imagebot_9"
         stroke-linejoin="round"
         d="m 73.981,1058.8 c 2.776,-11.3 3.048,-16.9 4.214,-24.6"
         stroke="#000000"
         stroke-linecap="round"
         stroke-width="4.0614"
         fill="none" />
      <path
         id="imagebot_8"
         stroke-linejoin="round"
         d="m 62.763,1058.3 c 0.855,-8 0.521,-11.8 0.555,-16.9"
         stroke="#000000"
         stroke-linecap="round"
         stroke-width="4.0614"
         fill="none" />
    </g>
    <title
       id="title1">Layer 1</title>
  </g>
  <metadata
     id="metadata1">
    <rdf:RDF>
      <cc:Work>
        <dc:format>image/svg+xml</dc:format>
        <dc:type
           rdf:resource="http://purl.org/dc/dcmitype/StillImage" />
        <cc:license
           rdf:resource="http://creativecommons.org/publicdomain/zero/1.0/" />
        <dc:publisher>
          <cc:Agent
             rdf:about="http://openclipart.org/">
            <dc:title>Openclipart</dc:title>
          </cc:Agent>
        </dc:publisher>
        <dc:title>Finger Point nog</dc:title>
        <dc:date>2012-02-07T01:54:00</dc:date>
        <dc:description />
        <dc:source>https://openclipart.org/detail/167880/finger-point-nog-by-rduris</dc:source>
        <dc:creator>
          <cc:Agent>
            <dc:title>rduris</dc:title>
          </cc:Agent>
        </dc:creator>
        <dc:subject>
          <rdf:Bag>
            <rdf:li>gun</rdf:li>
            <rdf:li>shape</rdf:li>
            <rdf:li>hand</rdf:li>
            <rdf:li>finger</rdf:li>
            <rdf:li>point</rdf:li>
            <rdf:li>glove</rdf:li>
            <rdf:li>thumb</rdf:li>
            <rdf:li>pointer</rdf:li>
          </rdf:Bag>
        </dc:subject>
      </cc:Work>
      <cc:License
         rdf:about="http://creativecommons.org/publicdomain/zero/1.0/">
        <cc:permits
           rdf:resource="http://creativecommons.org/ns#Reproduction" />
        <cc:permits
           rdf:resource="http://creativecommons.org/ns#Distribution" />
        <cc:permits
           rdf:resource="http://creativecommons.org/ns#DerivativeWorks" />
      </cc:License>
    </rdf:RDF>
  </metadata>
  <path
     style="fill:#000000"
     id="path2"
     d="m 273.5903,474.70704 c 0.12813,1.30187 0.25595,2.60078 0.60333,3.86489 0.3299,1.25755 0.98543,2.39508 1.69642,3.47201 0.56953,0.91482 1.48529,1.49605 2.21391,2.2611 0.0969,0.11819 0.19389,0.23639 0.29084,0.35458 0,0 3.41397,1.46122 3.41397,1.46122 v 0 c -0.0943,-0.12409 -0.18859,-0.24818 -0.28289,-0.37228 -0.67305,-0.82907 -1.63111,-1.3457 -2.25506,-2.22575 -0.70776,-1.04756 -1.41791,-2.13109 -1.73743,-3.36945 -0.39348,-1.21737 -0.53757,-2.4762 -0.6143,-3.75022 z" />
  <path
     style="fill:#000000"
     id="path3"
     d="m 294.9597,471.96517 c -0.4899,1.07145 -0.79055,2.21452 -1.14205,3.33575 -0.13794,0.65041 -0.30815,1.29327 -0.46954,1.93808 0,0 3.24168,1.75198 3.24168,1.75198 v 0 c 0.15603,-0.63839 0.32798,-1.27272 0.46812,-1.9149 0.33788,-1.11142 0.61577,-2.25776 1.16787,-3.28704 z" />
  <path
     style="fill:#000000"
     id="path4"
     d="m 313.72309,474.39742 c -1.11984,0.80814 -2.12432,1.75555 -3.167,2.65651 -0.65179,0.6317 -1.23183,1.3414 -1.78473,2.06089 -0.56636,0.65742 -1.03675,1.37562 -1.52504,2.08893 0,0 3.20759,1.88194 3.20759,1.88194 v 0 c 0.47591,-0.71523 0.95531,-1.41547 1.52372,-2.06366 0.53498,-0.70054 1.07493,-1.40764 1.70692,-2.02351 1.02405,-0.91816 2.03014,-1.86859 3.20264,-2.59984 z" />
</svg>
