<?xml version="1.0" encoding="UTF-8" standalone="no"?>
<svg
   width="600"
   height="300.04001"
   viewBox="144.20001 43.980005 599.99999 300.04001"
   preserveAspectRatio="xMidYMid"
   version="1.1"
   id="svg6"
   sodipodi:docname="go.svg"
   inkscape:version="1.4 (86a8ad7, 2024-10-11)"
   xmlns:inkscape="http://www.inkscape.org/namespaces/inkscape"
   xmlns:sodipodi="http://sodipodi.sourceforge.net/DTD/sodipodi-0.dtd"
   xmlns="http://www.w3.org/2000/svg"
   xmlns:svg="http://www.w3.org/2000/svg">
  <sodipodi:namedview
     id="namedview6"
     pagecolor="#ffffff"
     bordercolor="#000000"
     borderopacity="0.25"
     inkscape:showpageshadow="2"
     inkscape:pageopacity="0.0"
     inkscape:pagecheckerboard="0"
     inkscape:deskcolor="#d1d1d1"
     inkscape:zoom="0.79276941"
     inkscape:cx="404.90967"
     inkscape:cy="353.82293"
     inkscape:window-width="1440"
     inkscape:window-height="829"
     inkscape:window-x="1432"
     inkscape:window-y="-8"
     inkscape:window-maximized="1"
     inkscape:current-layer="svg6" />
  <defs
     id="defs5">
    <filter
       id="editing-lego"
       x="-0.04350979"
       y="-0.25806452"
       width="1.0870196"
       height="1.516129">
      <feFlood
         flood-color="#000"
         result="f1"
         id="feFlood1" />
      <feFlood
         flood-color="#ffff00"
         result="f2"
         id="feFlood2" />
      <feMorphology
         operator="dilate"
         radius="3"
         in="SourceAlpha"
         id="feMorphology2" />
      <feConvolveMatrix
         order="5,5"
         divisor="1"
         result="cm1"
         kernelMatrix="0 1 1 1 0  1 0 0 0 1  1 0 0 0 1  1 0 0 0 1  0 1 1 1 0"
         id="feConvolveMatrix2" />
      <feComposite
         operator="in"
         in="f1"
         in2="cm1"
         result="c1"
         id="feComposite2" />
      <feMorphology
         operator="dilate"
         radius="3"
         id="feMorphology3" />
      <feConvolveMatrix
         order="5,5"
         divisor="1"
         result="cm2"
         kernelMatrix="0 1 1 1 0  1 0 0 0 1  1 0 0 0 1  1 0 0 0 1  0 1 1 1 0"
         id="feConvolveMatrix3" />
      <feComposite
         operator="in"
         in="f2"
         in2="cm2"
         result="c2"
         id="feComposite3" />
      <feMerge
         id="feMerge5">
        <feMergeNode
           in="c2"
           id="feMergeNode3" />
        <feMergeNode
           in="c1"
           id="feMergeNode4" />
        <feMergeNode
           in="SourceGraphic"
           id="feMergeNode5" />
      </feMerge>
    </filter>
  </defs>
  <g
     filter="url(#editing-lego)"
     id="g6"
     transform="translate(200.27205,38.137216)">
    <g
       transform="translate(180.9,86.625001)"
       id="g5">
      <path
         d="m 11.8,-13.25 v 0 0 q -2.02,0 -3.5,-0.68 v 0 l -0.8,4.05 h 4.83 v 0 q 0,1.33 -0.67,2.17 v 0 0 Q 11,-6.88 9.8,-6.88 v 0 0 q -1.3,0 -2.5,-0.47 v 0 0 Q 7.05,-7.45 7.03,-7.48 v 0 L 5.6,0 H 0.15 l 3.18,-16.5 h 11.15 v 0 q 0,1.52 -0.72,2.39 v 0 0 q -0.71,0.86 -1.96,0.86 z m 8.05,11.87 v 0 0 Q 19.08,0.5 16.6,0.5 v 0 0 q -1.27,0 -2.07,-0.88 v 0 0 q -0.68,-0.77 -0.68,-1.55 v 0 0 q 0,-2.02 0.93,-5.97 v 0 l 0.92,-4.85 5.08,-0.5 -1.53,7.9 v 0 q -0.42,1.85 -0.42,2.5 v 0 0 q 0,1.42 1.02,1.47 z m -3.7,-14.85 v 0 0 q 0,-0.97 0.81,-1.5 v 0 0 q 0.82,-0.52 1.99,-0.52 v 0 0 q 1.18,0 1.89,0.52 v 0 0 q 0.71,0.53 0.71,1.5 v 0 0 q 0,0.98 -0.79,1.48 v 0 0 q -0.78,0.5 -1.96,0.5 v 0 0 q -1.17,0 -1.91,-0.5 v 0 0 q -0.74,-0.5 -0.74,-1.48 z M 39.98,0.5 v 0 0 q -3.03,0 -3.03,-2.35 v 0 0 q 0,-1.03 0.44,-3.01 v 0 0 q 0.44,-1.99 0.59,-2.79 v 0 0 q 0.35,-1.82 0.35,-2.4 v 0 0 q 0,-1.28 -0.95,-1.28 v 0 0 q -0.63,0 -1.23,0.87 v 0 0 q -0.6,0.86 -0.87,2.58 v 0 L 33.73,0 28.85,0.5 30.2,-6.3 v 0 q 0.23,-1.13 0.43,-2.4 v 0 0 q 0.2,-1.28 0.2,-1.48 v 0 0 q 0,-1.15 -0.85,-1.15 v 0 0 q -0.58,0 -1.2,0.85 v 0 0 q -0.63,0.85 -0.98,2.6 v 0 L 26.28,0 l -4.93,0.5 2.63,-13.25 4.07,-0.5 -0.42,2.52 v 0 q 0.65,-1.35 1.85,-1.93 v 0 0 q 1.2,-0.59 3.07,-0.59 v 0 0 q 1.08,0 1.78,0.52 v 0 0 q 0.7,0.53 0.92,1.38 v 0 0 q 0.42,-0.88 1.51,-1.39 v 0 0 q 1.09,-0.51 2.43,-0.51 v 0 0 q 1.34,0 2,0.29 v 0 0 q 0.66,0.28 1.06,0.76 v 0 0 q 0.67,0.87 0.67,2.47 v 0 0 q 0,1.58 -0.67,4.85 v 0 0 q -0.35,1.6 -0.35,2.19 v 0 0 q 0,0.59 0.34,0.94 v 0 0 q 0.34,0.35 0.84,0.4 v 0 0 Q 42.83,-0.5 41.96,0 V 0 0 Q 41.1,0.5 39.98,0.5 Z m 26.4,-10.88 v 0 0 q 0,10.66 -11.55,10.66 v 0 0 q -1.85,0 -4.9,-0.46 v 0 l 2.8,-14.77 v 0 q 0.2,-1 0.32,-1.58 v 0 0 q 3.8,-0.27 5.49,-0.27 v 0 0 q 1.69,0 3.24,0.35 v 0 0 q 1.55,0.35 2.57,1.12 v 0 0 q 2.03,1.53 2.03,4.95 z m -5.15,-0.92 v 0 0 q 0,-3.73 -2.68,-3.73 v 0 H 58.3 v 0 q -0.12,0 -0.25,0.03 v 0 l -2.57,13.42 v 0 q 0.1,0.05 0.2,0.05 v 0 h 0.2 v 0 q 0.92,0 1.88,-0.57 v 0 0 q 0.97,-0.58 1.72,-1.75 v 0 0 q 1.75,-2.73 1.75,-7.45 z m 16.54,7.07 v 0 0 q 0.63,0.43 0.63,1.37 v 0 0 q 0,0.93 -0.48,1.53 v 0 0 q -0.47,0.6 -1.25,1 v 0 0 Q 75.07,0.5 73.35,0.5 v 0 0 q -1.72,0 -2.74,-0.37 v 0 0 Q 69.6,-0.25 68.92,-0.95 v 0 0 Q 67.6,-2.27 67.6,-4.7 v 0 0 q 0,-3.77 2.05,-6.08 v 0 0 q 2.2,-2.47 6.02,-2.47 v 0 0 q 2.38,0 3.55,1 v 0 0 q 0.88,0.75 0.88,1.97 v 0 0 q 0,4.4 -7.6,4.4 v 0 0 q -0.1,0.65 -0.1,1.21 v 0 0 q 0,1.14 0.51,1.58 v 0 0 q 0.51,0.44 1.47,0.44 v 0 0 q 0.94,0 1.96,-0.44 v 0 0 q 1.01,-0.44 1.43,-1.14 z m -5.1,-2.72 v 0 0 q 1.78,0 2.8,-1.1 v 0 0 q 1.03,-1.05 1.03,-2.73 v 0 0 q 0,-0.57 -0.21,-0.88 v 0 0 q -0.22,-0.32 -0.64,-0.32 v 0 0 q -0.43,0 -0.79,0.17 v 0 0 q -0.36,0.16 -0.73,0.71 v 0 0 q -0.93,1.25 -1.46,4.15 z m 10.28,10.4 v 0 0 q 1.27,-0.15 2.07,-1.8 v 0 0 q 0.83,-1.68 1.58,-5.53 v 0 l 2.42,-12.62 h 5.43 l -2.43,12.62 v 0 Q 91.1,1.03 89.58,2.95 v 0 0 q -0.81,1 -1.82,1.4 v 0 0 q -1.01,0.4 -2.11,0.4 v 0 0 q -1.1,0 -1.81,-0.4 v 0 0 q -0.71,-0.4 -0.89,-0.9 z m 17.5,-2.95 v 0 0 q -5.5,0 -5.5,-5.17 v 0 0 q 0,-3.68 2.03,-6.06 v 0 0 q 2.15,-2.52 5.87,-2.52 v 0 0 q 2.7,0 4.08,1.25 v 0 0 q 1.37,1.25 1.37,3.87 v 0 0 q 0,4 -2.15,6.33 v 0 0 q -2.1,2.3 -5.7,2.3 z m 0.65,-10.88 v 0 0 q -0.3,0.68 -0.54,1.69 v 0 0 q -0.23,1.01 -0.53,2.61 v 0 0 q -0.3,1.6 -0.3,3.58 v 0 0 q 0,0.65 0.21,1.07 v 0 0 q 0.21,0.43 0.79,0.43 v 0 0 q 0.57,0 0.93,-0.28 v 0 0 q 0.37,-0.27 0.64,-0.92 v 0 0 q 0.5,-1.15 0.9,-3.29 v 0 0 q 0.4,-2.14 0.44,-3.06 v 0 0 q 0.03,-0.92 0.03,-1.61 v 0 0 q 0,-0.69 -0.19,-1.14 v 0 0 q -0.2,-0.45 -0.77,-0.45 v 0 0 q -0.56,0 -0.93,0.35 v 0 0 q -0.38,0.35 -0.68,1.02 z m 10.45,-0.07 v 0 0 q 0.85,-1.2 2.14,-2 v 0 0 q 1.29,-0.8 2.86,-0.8 v 0 0 q 1.58,0 2.33,0.5 v 0 l 4.9,-0.5 -1.7,9.6 v 0 q -0.88,4.9 -2.73,6.83 v 0 0 Q 117.58,5 114.13,5 V 5 5 Q 111.5,5 110,4.17 v 0 0 q -1.5,-0.82 -1.5,-2.19 v 0 0 q 0,-1.03 0.78,-1.62 v 0 0 q 0.77,-0.59 1.97,-0.59 v 0 0 q 1.05,0 1.85,0.48 v 0 0 q 0.48,0.25 0.7,0.6 v 0 0 q -0.57,0.5 -0.57,1.33 v 0 0 q 0,1.07 1,1.07 v 0 0 q 1.67,0 2.62,-3.95 v 0 0 q 0.28,-1.08 0.5,-2.15 v 0 0 q -1.12,1.37 -3.67,1.37 v 0 0 q -1.78,0 -2.8,-0.85 v 0 0 q -1.03,-0.85 -1.03,-2.85 v 0 0 q 0,-1.25 0.43,-2.66 v 0 0 q 0.42,-1.41 1.27,-2.61 z m 3.25,5.35 v 0 0 q 0,1.7 0.88,1.7 v 0 0 q 0.6,0 1.17,-0.65 v 0 0 q 0.45,-0.53 0.63,-1.3 v 0 l 1.27,-6.43 v 0 q -0.12,-0.02 -0.25,-0.07 v 0 0 q -0.25,-0.1 -0.57,-0.1 v 0 0 q -1.53,0 -2.43,2.5 v 0 0 q -0.7,1.95 -0.7,4.35 z m 15.4,5.6 v 0 0 q -5.5,0 -5.5,-5.17 v 0 0 q 0,-3.68 2.03,-6.06 v 0 0 q 2.15,-2.52 5.87,-2.52 v 0 0 q 2.7,0 4.08,1.25 v 0 0 q 1.37,1.25 1.37,3.87 v 0 0 q 0,4 -2.15,6.33 v 0 0 q -2.1,2.3 -5.7,2.3 z m 0.65,-10.88 v 0 0 q -0.3,0.68 -0.54,1.69 v 0 0 q -0.23,1.01 -0.53,2.61 v 0 0 q -0.3,1.6 -0.3,3.58 v 0 0 q 0,0.65 0.21,1.07 v 0 0 Q 129.9,-1 130.48,-1 v 0 0 q 0.57,0 0.93,-0.28 v 0 0 q 0.37,-0.27 0.64,-0.92 v 0 0 q 0.5,-1.15 0.9,-3.29 v 0 0 q 0.4,-2.14 0.44,-3.06 v 0 0 q 0.04,-0.92 0.04,-1.61 v 0 0 q 0,-0.69 -0.2,-1.14 v 0 0 q -0.2,-0.45 -0.77,-0.45 v 0 0 q -0.56,0 -0.93,0.35 v 0 0 q -0.38,0.35 -0.68,1.02 z"
         fill="#ffffff"
         id="path5" />
    </g>
  </g>
  <style
     id="style6">text {
  font-size: 64px;
  font-family: Arial Black;
  dominant-baseline: central;
  text-anchor: middle;
}</style>
</svg>
