<svg width="206.03999023437498px" height="192.039990234375px" xmlns="http://www.w3.org/2000/svg" viewBox="146.98000488281252 43.9800048828125 206.03999023437498 62.039990234375" style="background: none;" preserveAspectRatio="xMidYMid"><defs><filter id="editing-lego" x="-100%" y="-100%" width="300%" height="300%"><feFlood flood-color="#000" result="f1"></feFlood><feFlood flood-color="#ffff00" result="f2"></feFlood><feMorphology operator="dilate" radius="3" in="SourceAlpha"></feMorphology><feConvolveMatrix order="5,5" divisor="1" result="cm1" kernelMatrix="0 1 1 1 0  1 0 0 0 1  1 0 0 0 1  1 0 0 0 1  0 1 1 1 0"></feConvolveMatrix><feComposite operator="in" in="f1" in2="cm1" result="c1"></feComposite><feMorphology operator="dilate" radius="3"></feMorphology><feConvolveMatrix order="5,5" divisor="1" result="cm2" kernelMatrix="0 1 1 1 0  1 0 0 0 1  1 0 0 0 1  1 0 0 0 1  0 1 1 1 0"></feConvolveMatrix><feComposite operator="in" in="f2" in2="cm2" result="c2"></feComposite><feMerge><feMergeNode in="c2"></feMergeNode><feMergeNode in="c1"></feMergeNode><feMergeNode in="SourceGraphic"></feMergeNode></feMerge></filter></defs><g filter="url(#editing-lego)"><g transform="translate(187.53500014543533, 05.8400011062622)"><path d="M10.20-16.68L10.20-16.68L10.20-16.68Q16.32-16.68 16.32-12.35L16.32-12.35L16.32-12.35Q16.32-9.98 14.80-8.55L14.80-8.55L14.80-8.55Q13.30-7.13 10.68-7.13L10.68-7.13L10.68-7.13Q9.45-7.13 8.50-7.83L8.50-7.83L8.50-7.83Q8.05-8.13 7.75-8.53L7.75-8.53L7.75-8.53Q9.58-8.53 10.54-9.64L10.54-9.64L10.54-9.64Q11.50-10.75 11.50-12.93L11.50-12.93L11.50-12.93Q11.50-15.10 9.35-15.10L9.35-15.10L8.75-15.10L8.75-15.10Q8.60-15.10 8.47-15.08L8.47-15.08L5.60 0L0.18 0L3.25-16.38L3.25-16.38Q5.93-16.63 7.48-16.65L7.48-16.65L7.48-16.65Q9.03-16.68 10.20-16.68ZM24.28-7.03L24.28-7.03L24.28-7.03Q25.18-8.63 25.18-10.25L25.18-10.25L25.18-10.25Q25.18-11.33 24.40-11.33L24.40-11.33L24.40-11.33Q23.80-11.33 23.18-10.30L23.18-10.30L23.18-10.30Q22.53-9.28 22.33-7.95L22.33-7.95L21.03 0L15.85 0.50L18.40-12.75L22.53-13.25L22.08-10.73L22.08-10.73Q23.30-13.25 26.05-13.25L26.05-13.25L26.05-13.25Q27.50-13.25 28.29-12.50L28.29-12.50L28.29-12.50Q29.08-11.75 29.08-10.21L29.08-10.21L29.08-10.21Q29.08-8.68 28.06-7.70L28.06-7.70L28.06-7.70Q27.05-6.73 25.33-6.73L25.33-6.73L25.33-6.73Q24.58-6.73 24.28-7.03ZM39.60-4.23L39.60-4.23L39.60-4.23Q40.23-3.80 40.23-2.86L40.23-2.86L40.23-2.86Q40.23-1.93 39.75-1.33L39.75-1.33L39.75-1.33Q39.28-0.73 38.50-0.33L38.50-0.33L38.50-0.33Q36.90 0.50 35.18 0.50L35.18 0.50L35.18 0.50Q33.45 0.50 32.44 0.13L32.44 0.13L32.44 0.13Q31.43-0.25 30.75-0.95L30.75-0.95L30.75-0.95Q29.43-2.27 29.43-4.70L29.43-4.70L29.43-4.70Q29.43-8.47 31.48-10.78L31.48-10.78L31.48-10.78Q33.68-13.25 37.50-13.25L37.50-13.25L37.50-13.25Q39.88-13.25 41.05-12.25L41.05-12.25L41.05-12.25Q41.93-11.50 41.93-10.28L41.93-10.28L41.93-10.28Q41.93-5.88 34.33-5.88L34.33-5.88L34.33-5.88Q34.23-5.23 34.23-4.67L34.23-4.67L34.23-4.67Q34.23-3.53 34.74-3.09L34.74-3.09L34.74-3.09Q35.25-2.65 36.20-2.65L36.20-2.65L36.20-2.65Q37.15-2.65 38.16-3.09L38.16-3.09L38.16-3.09Q39.18-3.53 39.60-4.23ZM34.50-6.95L34.50-6.95L34.50-6.95Q36.28-6.95 37.30-8.05L37.30-8.05L37.30-8.05Q38.33-9.10 38.33-10.78L38.33-10.78L38.33-10.78Q38.33-11.35 38.11-11.66L38.11-11.66L38.11-11.66Q37.90-11.98 37.48-11.98L37.48-11.98L37.48-11.98Q37.05-11.98 36.69-11.81L36.69-11.81L36.69-11.81Q36.33-11.65 35.95-11.10L35.95-11.10L35.95-11.10Q35.03-9.85 34.50-6.95ZM54.43-1.71L54.43-1.71L54.43-1.71Q53.38-0.65 51.94-0.08L51.94-0.08L51.94-0.08Q50.50 0.50 49.08 0.50L49.08 0.50L49.08 0.50Q47.65 0.50 47.15 0.25L47.15 0.25L46.38 4.50L41.30 5L44.75-12.75L48.83-13.18L48.50-11.45L48.50-11.45Q49.55-13.23 51.73-13.23L51.73-13.23L51.73-13.23Q54.18-13.23 55.48-11.65L55.48-11.65L55.48-11.65Q56.63-10.23 56.63-8.05L56.63-8.05L56.63-8.05Q56.63-5.88 56.05-4.33L56.05-4.33L56.05-4.33Q55.48-2.78 54.43-1.71ZM48.78-8.72L47.45-1.40L47.45-1.40Q47.98-0.95 48.63-0.95L48.63-0.95L48.63-0.95Q49.28-0.95 49.65-1.20L49.65-1.20L49.65-1.20Q50.03-1.45 50.30-1.95L50.30-1.95L50.30-1.95Q51.05-3.30 51.65-7.40L51.65-7.40L51.65-7.40Q51.83-8.60 51.83-9.78L51.83-9.78L51.83-9.78Q51.83-10.95 51.56-11.33L51.56-11.33L51.56-11.33Q51.30-11.70 50.80-11.70L50.80-11.70L50.80-11.70Q49.28-11.70 48.78-8.72L48.78-8.72ZM59.21-0.75L59.21-0.75L59.21-0.75Q58.63-1.40 58.36-2.43L58.36-2.43L58.36-2.43Q58.10-3.45 58.10-5.13L58.10-5.13L58.10-5.13Q58.10-6.80 58.68-8.33L58.68-8.33L58.68-8.33Q59.25-9.85 60.30-10.95L60.30-10.95L60.30-10.95Q62.45-13.25 66.00-13.25L66.00-13.25L66.00-13.25Q67.28-13.25 68.20-12.83L68.20-12.83L72.48-13.25L70.63-3.50L70.63-3.50Q70.55-3.20 70.55-2.65L70.55-2.65L70.55-2.65Q70.55-2.10 70.89-1.75L70.89-1.75L70.89-1.75Q71.23-1.40 71.73-1.35L71.73-1.35L71.73-1.35Q71.48-0.50 70.56 0L70.56 0L70.56 0Q69.65 0.50 68.63 0.50L68.63 0.50L68.63 0.50Q67.60 0.50 66.91 0.11L66.91 0.11L66.91 0.11Q66.23-0.28 66.03-0.93L66.03-0.93L66.03-0.93Q65.63-0.30 64.78 0.10L64.78 0.10L64.78 0.10Q63.93 0.50 62.79 0.50L62.79 0.50L62.79 0.50Q61.65 0.50 60.73 0.20L60.73 0.20L60.73 0.20Q59.80-0.10 59.21-0.75ZM64.49-10.90L64.49-10.90L64.49-10.90Q64.20-10.45 63.95-9.69L63.95-9.69L63.95-9.69Q63.70-8.93 63.29-6.89L63.29-6.89L63.29-6.89Q62.88-4.85 62.88-3.40L62.88-3.40L62.88-3.40Q62.88-1.95 63.10-1.53L63.10-1.53L63.10-1.53Q63.33-1.10 63.73-1.10L63.73-1.10L63.73-1.10Q64.53-1.10 65.11-1.86L65.11-1.86L65.11-1.86Q65.70-2.63 65.93-3.98L65.93-3.98L67.25-11.30L67.25-11.30Q66.73-11.75 66.11-11.75L66.11-11.75L66.11-11.75Q65.50-11.75 65.14-11.55L65.14-11.55L65.14-11.55Q64.78-11.35 64.49-10.90ZM81.65-7.03L81.65-7.03L81.65-7.03Q82.55-8.63 82.55-10.25L82.55-10.25L82.55-10.25Q82.55-11.33 81.78-11.33L81.78-11.33L81.78-11.33Q81.18-11.33 80.55-10.30L80.55-10.30L80.55-10.30Q79.90-9.28 79.70-7.95L79.70-7.95L78.40 0L73.23 0.50L75.78-12.75L79.90-13.25L79.45-10.73L79.45-10.73Q80.68-13.25 83.43-13.25L83.43-13.25L83.43-13.25Q84.88-13.25 85.66-12.50L85.66-12.50L85.66-12.50Q86.45-11.75 86.45-10.21L86.45-10.21L86.45-10.21Q86.45-8.68 85.44-7.70L85.44-7.70L85.44-7.70Q84.43-6.73 82.70-6.73L82.70-6.73L82.70-6.73Q81.95-6.73 81.65-7.03ZM96.98-4.23L96.98-4.23L96.98-4.23Q97.60-3.80 97.60-2.86L97.60-2.86L97.60-2.86Q97.60-1.93 97.13-1.33L97.13-1.33L97.13-1.33Q96.65-0.73 95.88-0.33L95.88-0.33L95.88-0.33Q94.28 0.50 92.55 0.50L92.55 0.50L92.55 0.50Q90.83 0.50 89.81 0.13L89.81 0.13L89.81 0.13Q88.80-0.25 88.13-0.95L88.13-0.95L88.13-0.95Q86.80-2.27 86.80-4.70L86.80-4.70L86.80-4.70Q86.80-8.47 88.85-10.78L88.85-10.78L88.85-10.78Q91.05-13.25 94.88-13.25L94.88-13.25L94.88-13.25Q97.25-13.25 98.43-12.25L98.43-12.25L98.43-12.25Q99.30-11.50 99.30-10.28L99.30-10.28L99.30-10.28Q99.30-5.88 91.70-5.88L91.70-5.88L91.70-5.88Q91.60-5.23 91.60-4.67L91.60-4.67L91.60-4.67Q91.60-3.53 92.11-3.09L92.11-3.09L92.11-3.09Q92.63-2.65 93.58-2.65L93.58-2.65L93.58-2.65Q94.53-2.65 95.54-3.09L95.54-3.09L95.54-3.09Q96.55-3.53 96.98-4.23ZM91.88-6.95L91.88-6.95L91.88-6.95Q93.65-6.95 94.68-8.05L94.68-8.05L94.68-8.05Q95.70-9.10 95.70-10.78L95.70-10.78L95.70-10.78Q95.70-11.35 95.49-11.66L95.49-11.66L95.49-11.66Q95.28-11.98 94.85-11.98L94.85-11.98L94.85-11.98Q94.43-11.98 94.06-11.81L94.06-11.81L94.06-11.81Q93.70-11.65 93.33-11.10L93.33-11.10L93.33-11.10Q92.40-9.85 91.88-6.95ZM107.63-8.78L107.63-8.78L107.63-8.78Q107.98-9.70 107.98-10.50L107.98-10.50L107.98-10.50Q107.98-11.98 106.78-11.98L106.78-11.98L106.78-11.98Q106.15-11.98 105.64-11.41L105.64-11.41L105.64-11.41Q105.13-10.85 105.13-10.15L105.13-10.15L105.13-10.15Q105.13-9.65 105.53-9.25L105.53-9.25L105.53-9.25Q106.10-8.70 107.58-7.80L107.58-7.80L107.58-7.80Q109.05-6.90 109.61-6.16L109.61-6.16L109.61-6.16Q110.18-5.43 110.18-4.41L110.18-4.41L110.18-4.41Q110.18-3.40 109.69-2.48L109.69-2.48L109.69-2.48Q109.20-1.55 108.33-0.90L108.33-0.90L108.33-0.90Q106.45 0.50 103.45 0.50L103.45 0.50L103.45 0.50Q101.83 0.50 100.58-0.35L100.58-0.35L100.58-0.35Q99.33-1.18 99.33-2.15L99.33-2.15L99.33-2.15Q99.33-3.13 100.04-3.70L100.04-3.70L100.04-3.70Q100.75-4.28 101.80-4.28L101.80-4.28L101.80-4.28Q102.85-4.28 103.50-3.88L103.50-3.88L103.50-3.88Q103.18-3.05 103.18-2.50L103.18-2.50L103.18-2.50Q103.18-0.85 104.58-0.85L104.58-0.85L104.58-0.85Q105.18-0.85 105.58-1.23L105.58-1.23L105.58-1.23Q105.98-1.60 105.98-2.25L105.98-2.25L105.98-2.25Q105.98-3.53 103.83-4.88L103.83-4.88L103.83-4.88Q102.08-6.03 101.68-6.48L101.68-6.48L101.68-6.48Q101.00-7.28 101.00-8.28L101.00-8.28L101.00-8.28Q101.00-9.28 101.48-10.23L101.48-10.23L101.48-10.23Q101.95-11.18 102.83-11.85L102.83-11.85L102.83-11.85Q104.65-13.25 107.83-13.25L107.83-13.25L107.83-13.25Q109.45-13.25 110.41-12.60L110.41-12.60L110.41-12.60Q111.38-11.95 111.38-10.85L111.38-10.85L111.38-10.85Q111.38-9.75 110.71-9.13L110.71-9.13L110.71-9.13Q110.05-8.50 108.85-8.50L108.85-8.50L108.85-8.50Q108.03-8.50 107.63-8.78ZM122.43-4.23L122.43-4.23L122.43-4.23Q123.05-3.80 123.05-2.86L123.05-2.86L123.05-2.86Q123.05-1.93 122.58-1.33L122.58-1.33L122.58-1.33Q122.10-0.73 121.33-0.33L121.33-0.33L121.33-0.33Q119.73 0.50 118.00 0.50L118.00 0.50L118.00 0.50Q116.28 0.50 115.26 0.13L115.26 0.13L115.26 0.13Q114.25-0.25 113.58-0.95L113.58-0.95L113.58-0.95Q112.25-2.27 112.25-4.70L112.25-4.70L112.25-4.70Q112.25-8.47 114.30-10.78L114.30-10.78L114.30-10.78Q116.50-13.25 120.33-13.25L120.33-13.25L120.33-13.25Q122.70-13.25 123.88-12.25L123.88-12.25L123.88-12.25Q124.75-11.50 124.75-10.28L124.75-10.28L124.75-10.28Q124.75-5.88 117.15-5.88L117.15-5.88L117.15-5.88Q117.05-5.23 117.05-4.67L117.05-4.67L117.05-4.67Q117.05-3.53 117.56-3.09L117.56-3.09L117.56-3.09Q118.08-2.65 119.03-2.65L119.03-2.65L119.03-2.65Q119.98-2.65 120.99-3.09L120.99-3.09L120.99-3.09Q122.00-3.53 122.43-4.23ZM117.33-6.95L117.33-6.95L117.33-6.95Q119.10-6.95 120.13-8.05L120.13-8.05L120.13-8.05Q121.15-9.10 121.15-10.78L121.15-10.78L121.15-10.78Q121.15-11.35 120.94-11.66L120.94-11.66L120.94-11.66Q120.73-11.98 120.30-11.98L120.30-11.98L120.30-11.98Q119.88-11.98 119.51-11.81L119.51-11.81L119.51-11.81Q119.15-11.65 118.78-11.10L118.78-11.10L118.78-11.10Q117.85-9.85 117.33-6.95Z" fill="#fff"></path></g></g><style>text {
  font-size: 64px;
  font-family: Arial Black;
  dominant-baseline: central;
  text-anchor: middle;
}</style></svg>